<svg xmlns="http://www.w3.org/2000/svg" version="1.1" xmlns:xlink="http://www.w3.org/1999/xlink" xmlns:svgjs="http://svgjs.dev/svgjs" width="1000" height="623" viewBox="0 0 1000 623"><g transform="matrix(1,0,0,1,-0.6060586770926761,0.2522267206477409)"><svg viewBox="0 0 396 247" data-background-color="#b19dd0" preserveAspectRatio="xMidYMid meet" height="623" width="1000" xmlns="http://www.w3.org/2000/svg" xmlns:xlink="http://www.w3.org/1999/xlink"><g id="tight-bounds" transform="matrix(1,0,0,1,0.23999923612871044,-0.09999999999999432)"><svg viewBox="0 0 395.52 247.2" height="247.2" width="395.52"><g><svg></svg></g><g><svg viewBox="0 0 395.52 247.2" height="247.2" width="395.52"><g transform="matrix(1,0,0,1,0,100.47880597014925)"><svg viewBox="0 0 395.52 46.24238805970149" height="46.24238805970149" width="395.52"><g><svg viewBox="0 0 395.52 46.24238805970149" height="46.24238805970149" width="395.52"><g><svg viewBox="0 0 395.52 46.24238805970149" height="46.24238805970149" width="395.52"><g><svg viewBox="0 0 395.52 46.24238805970149" height="46.24238805970149" width="395.52"><g><svg viewBox="0 0 395.52 46.24238805970149" height="46.24238805970149" width="395.52"><g transform="matrix(1,0,0,1,0,0)"><svg width="395.52" viewBox="3 -36.43000030517578 316.0299987792969 36.43000030517578" height="46.24238805970149" data-palette-color="#7a26c1"><g class="undefined-text-0" data-fill-palette-color="primary" id="text-0"><path d="M3-36.43L26.45-36.43 26.45-29.93 11.5-29.93 11.5-21.43 22.95-21.43 22.95-15.18 11.5-15.18 11.5-6.5 26.45-6.5 26.45 0 3 0 3-36.43ZM28.75-36.43L57.7-36.43 57.7-29.73 47.45-29.73 47.45 0 39 0 39-29.73 28.75-29.73 28.75-36.43ZM81-36.43L95.09 0 88.55 0Q87.45 0 86.73-0.51 86.02-1.03 85.75-1.83L85.75-1.83 83.6-8.18 69.75-8.18 67.6-1.83Q67.35-1.13 66.62-0.56 65.9 0 64.85 0L64.85 0 58.25 0 72.35-36.43 81-36.43ZM75.05-23.85L71.7-13.93 81.65-13.93 78.3-23.9Q77.97-24.85 77.53-26.14 77.1-27.43 76.67-28.93L76.67-28.93Q76.27-27.4 75.85-26.1 75.42-24.8 75.05-23.85L75.05-23.85ZM108.64-13.48L106.49-13.48 106.49 0 98.04 0 98.04-36.43 109.89-36.43Q113.84-36.43 116.63-35.61 119.42-34.8 121.18-33.35 122.94-31.9 123.74-29.93 124.54-27.95 124.54-25.63L124.54-25.63Q124.54-23.85 124.07-22.28 123.59-20.7 122.66-19.36 121.72-18.03 120.36-16.98 118.99-15.93 117.22-15.25L117.22-15.25Q118.07-14.83 118.81-14.2 119.54-13.58 120.09-12.68L120.09-12.68 127.84 0 120.19 0Q118.07 0 117.14-1.6L117.14-1.6 111.09-12.18Q110.69-12.88 110.16-13.18 109.62-13.48 108.64-13.48L108.64-13.48ZM106.49-30.1L106.49-19.3 109.89-19.3Q111.62-19.3 112.83-19.74 114.04-20.18 114.82-20.95 115.59-21.73 115.94-22.76 116.29-23.8 116.29-25L116.29-25Q116.29-27.4 114.73-28.75 113.17-30.1 109.89-30.1L109.89-30.1 106.49-30.1ZM139.74-36.43L139.74-6.75 153.24-6.75 153.24 0 131.29 0 131.29-36.43 139.74-36.43ZM157.24-36.43L180.69-36.43 180.69-29.93 165.74-29.93 165.74-21.43 177.19-21.43 177.19-15.18 165.74-15.18 165.74-6.5 180.69-6.5 180.69 0 157.24 0 157.24-36.43ZM216.84-36.43L203.64-13.85 203.64 0 195.19 0 195.19-13.85 181.99-36.43 189.44-36.43Q190.54-36.43 191.19-35.91 191.84-35.4 192.24-34.6L192.24-34.6 197.39-24Q198.01-22.73 198.54-21.65 199.06-20.58 199.46-19.53L199.46-19.53Q199.84-20.6 200.36-21.68 200.89-22.75 201.49-24L201.49-24 206.59-34.6Q206.74-34.93 207-35.25 207.26-35.58 207.6-35.84 207.94-36.1 208.37-36.26 208.81-36.43 209.34-36.43L209.34-36.43 216.84-36.43Z" fill="#7a26c1" data-fill-palette-color="primary"></path><path d="M252.89-18.23L252.89-18.23Q252.89-14.28 251.53-10.94 250.17-7.6 247.69-5.16 245.22-2.73 241.73-1.36 238.24 0 233.99 0L233.99 0 219.84 0 219.84-36.43 233.99-36.43Q238.24-36.43 241.73-35.05 245.22-33.68 247.69-31.25 250.17-28.83 251.53-25.49 252.89-22.15 252.89-18.23ZM244.24-18.23L244.24-18.23Q244.24-20.93 243.54-23.1 242.84-25.28 241.53-26.79 240.22-28.3 238.32-29.11 236.42-29.93 233.99-29.93L233.99-29.93 228.34-29.93 228.34-6.5 233.99-6.5Q236.42-6.5 238.32-7.31 240.22-8.13 241.53-9.64 242.84-11.15 243.54-13.33 244.24-15.5 244.24-18.23ZM256.94-36.43L280.39-36.43 280.39-29.93 265.44-29.93 265.44-21.43 276.89-21.43 276.89-15.18 265.44-15.18 265.44-6.5 280.39-6.5 280.39 0 256.94 0 256.94-36.43ZM296.78 0L282.18-36.43 288.98-36.43Q290.09-36.43 290.78-35.93 291.48-35.43 291.78-34.6L291.78-34.6 298.84-15.1Q299.31-13.83 299.8-12.33 300.28-10.83 300.71-9.18L300.71-9.18Q301.06-10.83 301.52-12.33 301.98-13.83 302.43-15.1L302.43-15.1 309.43-34.6Q309.68-35.3 310.41-35.86 311.14-36.43 312.18-36.43L312.18-36.43 319.03-36.43 304.43 0 296.78 0Z" fill="#6936f5" data-fill-palette-color="secondary"></path></g></svg></g></svg></g></svg></g></svg></g></svg></g></svg></g><g mask="url(#ac9c8b70-c3f3-45dc-83e3-c2932be3522a)"><g transform="matrix(3.5078683068300105, 0, 0, 3.5078683068300105, 57.26986360629357, 1)"><svg xmlns="http://www.w3.org/2000/svg" xmlns:xlink="http://www.w3.org/1999/xlink" version="1.1" baseProfile="basic" x="0" y="0" viewBox="5 10 80.10000610351562 69.9000015258789" xml:space="preserve" height="69.9000015258789" width="80.10000610351562" class="icon-none" data-fill-palette-color="accent" id="none"><g fill="#6936f5" data-fill-palette-color="accent"><path fill-rule="evenodd" clip-rule="evenodd" d="M77.2 10H12.8C8.2 10 5 13.8 5 17.9v54.1c0 4.1 3.2 7.9 7.8 7.9h64.5c4.6 0 7.8-3.8 7.8-7.9V17.9C85 13.8 81.8 10 77.2 10zM12.8 17h64.5c1 0 1.8 0.6 1.8 0.9V33H11V17.9C11 17.6 11.7 17 12.8 17zM77.2 73H12.8c-1 0-1.8-0.6-1.8-0.9V37h68v35.1C79 72.4 78.3 73 77.2 73z" fill="#6936f5" data-fill-palette-color="accent"></path><path fill-rule="evenodd" clip-rule="evenodd" d="M71.4 27.8c1.4 0 2.6-1.2 2.6-2.7 0-1.5-1.2-2.7-2.6-2.7-1.4 0-2.6 1.2-2.6 2.7C68.8 26.6 70 27.8 71.4 27.8z" fill="#6936f5" data-fill-palette-color="accent"></path><path fill-rule="evenodd" clip-rule="evenodd" d="M60.9 27.8c1.4 0 2.6-1.2 2.6-2.7 0-1.5-1.2-2.7-2.6-2.7-1.5 0-2.6 1.2-2.6 2.7C58.2 26.6 59.4 27.8 60.9 27.8z" fill="#6936f5" data-fill-palette-color="accent"></path><path fill-rule="evenodd" clip-rule="evenodd" d="M50.3 27.8c1.4 0 2.6-1.2 2.6-2.7 0-1.5-1.2-2.7-2.6-2.7-1.5 0-2.7 1.2-2.7 2.7C47.6 26.6 48.8 27.8 50.3 27.8z" fill="#6936f5" data-fill-palette-color="accent"></path></g></svg></g></g></svg></g><defs><mask id="4cb853ce-2854-4113-8e6f-34f813477dbc"><rect width="640" height="400" fill="white"></rect><rect width="348.05760000000004" height="58.443241651649146" fill="black" x="145.97119999999998" y="170.77837917417543" id="transform-me" transform="matrix(1,0,0,1,-122.24000000000001,-76.4)"></rect></mask><mask id="f365702a-2e3f-4183-a9b0-5355f5103021"><rect width="640" height="400" fill="white"></rect><rect width="348.05760000000004" height="58.443241651649146" fill="black" x="145.97119999999998" y="170.77837917417543" id="transform-me" transform="matrix(1,0,0,1,-122.24000000000001,-76.4)"></rect></mask><mask id="b7e7afb4-ef13-4daa-8721-b137252bab5f"><rect width="640" height="400" fill="white"></rect><rect width="348.05760000000004" height="58.443241651649146" fill="black" x="145.97119999999998" y="170.77837917417543" id="transform-me" transform="matrix(1,0,0,1,-122.24000000000001,-76.4)"></rect></mask><mask id="1082d681-fa74-4a2f-9f2b-04f8bbcb2d39"><rect width="640" height="400" fill="white"></rect><rect width="348.05760000000004" height="54.46065925349254" fill="black" x="145.97119999999998" y="172.76967037325375" id="transform-me" transform="matrix(1,0,0,1,-122.24000000000001,-76.4)"></rect></mask><mask id="c89a1fd8-29f2-4fbe-bbdd-921afc45081a"><rect width="640" height="400" fill="white"></rect><rect width="348.05760000000004" height="54.46065925349254" fill="black" x="145.97119999999998" y="172.76967037325375" id="transform-me" transform="matrix(1,0,0,1,-122.24000000000001,-76.4)"></rect></mask><mask id="037c99e9-a4b1-4486-bff9-c0120f32e708"><rect width="640" height="400" fill="white"></rect><rect width="348.05760000000004" height="54.46065925349254" fill="black" x="145.97119999999998" y="172.76967037325375" id="transform-me" transform="matrix(1,0,0,1,-122.24000000000001,-76.4)"></rect></mask><mask id="b00ed80a-6557-4047-bc5b-2df2b370e78f"><rect width="640" height="400" fill="white"></rect><rect width="348.05760000000004" height="54.46065925349254" fill="black" x="145.97119999999998" y="172.76967037325375" id="transform-me" transform="matrix(1,0,0,1,-122.24000000000001,-76.4)"></rect></mask><mask id="be7d8bfb-ff05-4765-8f1b-d0cca42f80b2"><rect width="640" height="400" fill="white"></rect><rect width="348.05760000000004" height="54.46065925349254" fill="black" x="145.97119999999998" y="172.76967037325375" id="transform-me" transform="matrix(1,0,0,1,-122.24000000000001,-76.4)"></rect></mask><mask id="a546e91c-9783-4d65-aae0-7705a38a786f"><rect width="640" height="400" fill="white"></rect><rect width="348.05760000000004" height="54.46065925349254" fill="black" x="145.97119999999998" y="172.76967037325375" id="transform-me" transform="matrix(1,0,0,1,-122.24000000000001,-76.4)"></rect></mask><mask id="d2e84587-bbdd-43a6-b7d3-534090f5e383"><rect width="640" height="400" fill="white"></rect><rect width="348.05760000000004" height="54.46065925349254" fill="black" x="145.97119999999998" y="172.76967037325375" id="transform-me" transform="matrix(1,0,0,1,-122.24000000000001,-76.4)"></rect></mask><mask id="c8e90646-d5ec-49a4-a5a4-6365ce2701fe"><rect width="640" height="400" fill="white"></rect><rect width="348.05760000000004" height="54.46065925349254" fill="black" x="145.97119999999998" y="172.76967037325375" id="transform-me" transform="matrix(1,0,0,1,-122.24000000000001,-76.4)"></rect></mask><mask id="ebb1b890-27c4-4b01-8ecd-4185cad7da8d"><rect width="640" height="400" fill="white"></rect><rect width="435.072" height="68.07582406686566" fill="black" x="102.464" y="165.96208796656717" id="transform-me" transform="matrix(1,0,0,1,-122.24000000000001,-76.4)"></rect></mask><mask id="6532e692-5d06-4a1e-9467-e3ca4ba6b58d"><rect width="640" height="400" fill="white"></rect><rect width="435.072" height="68.07582406686566" fill="black" x="102.464" y="165.96208796656717" id="transform-me" transform="matrix(1,0,0,1,-122.24000000000001,-76.4)"></rect></mask><mask id="ff459041-d7d1-4cac-acf8-ecbde83716f7"><rect width="640" height="400" fill="white"></rect><rect width="348.05760000000004" height="54.46065925349254" fill="black" x="145.97119999999998" y="172.76967037325375" id="transform-me" transform="matrix(1,0,0,1,-122.24000000000001,-76.4)"></rect></mask><mask id="ac9c8b70-c3f3-45dc-83e3-c2932be3522a"><rect width="640" height="400" fill="white"></rect><rect width="435.072" height="68.07582406686566" fill="black" x="102.464" y="165.96208796656717" id="transform-me" transform="matrix(1,0,0,1,-122.24000000000001,-76.4)"></rect></mask></defs></svg><rect width="395.52" height="247.2" fill="none" stroke="none" visibility="hidden"></rect></g></svg></g></svg>